<!-- filepath: /c:/Users/skumari/OneDrive - Hexagon/Attachments/Project Satelite/hertz-app-website/src/assets/images/backgrounds/tech-bg.svg -->
<svg width="1920" height="1080" viewBox="0 0 1920 1080" fill="none" xmlns="http://www.w3.org/2000/svg">
    <!-- Dark background -->
    <rect width="1920" height="1080" fill="#0F172A"/>
    
    <!-- Grid pattern -->
    <g opacity="0.1">
      <!-- Horizontal lines -->
      <line x1="0" y1="100" x2="1920" y2="100" stroke="#74b9ff" stroke-width="1"/>
      <line x1="0" y1="200" x2="1920" y2="200" stroke="#74b9ff" stroke-width="1"/>
      <line x1="0" y1="300" x2="1920" y2="300" stroke="#74b9ff" stroke-width="1"/>
      <line x1="0" y1="400" x2="1920" y2="400" stroke="#74b9ff" stroke-width="1"/>
      <line x1="0" y1="500" x2="1920" y2="500" stroke="#74b9ff" stroke-width="1"/>
      <line x1="0" y1="600" x2="1920" y2="600" stroke="#74b9ff" stroke-width="1"/>
      <line x1="0" y1="700" x2="1920" y2="700" stroke="#74b9ff" stroke-width="1"/>
      <line x1="0" y1="800" x2="1920" y2="800" stroke="#74b9ff" stroke-width="1"/>
      <line x1="0" y1="900" x2="1920" y2="900" stroke="#74b9ff" stroke-width="1"/>
      <line x1="0" y1="1000" x2="1920" y2="1000" stroke="#74b9ff" stroke-width="1"/>
      
      <!-- Vertical lines -->
      <line x1="100" y1="0" x2="100" y2="1080" stroke="#74b9ff" stroke-width="1"/>
      <line x1="300" y1="0" x2="300" y2="1080" stroke="#74b9ff" stroke-width="1"/>
      <line x1="500" y1="0" x2="500" y2="1080" stroke="#74b9ff" stroke-width="1"/>
      <line x1="700" y1="0" x2="700" y2="1080" stroke="#74b9ff" stroke-width="1"/>
      <line x1="900" y1="0" x2="900" y2="1080" stroke="#74b9ff" stroke-width="1"/>
      <line x1="1100" y1="0" x2="1100" y2="1080" stroke="#74b9ff" stroke-width="1"/>
      <line x1="1300" y1="0" x2="1300" y2="1080" stroke="#74b9ff" stroke-width="1"/>
      <line x1="1500" y1="0" x2="1500" y2="1080" stroke="#74b9ff" stroke-width="1"/>
      <line x1="1700" y1="0" x2="1700" y2="1080" stroke="#74b9ff" stroke-width="1"/>
      <line x1="1900" y1="0" x2="1900" y2="1080" stroke="#74b9ff" stroke-width="1"/>
    </g>
    
    <!-- Tech circuit patterns -->
    <g opacity="0.2">
      <!-- Circuit 1 -->
      <path d="M100 200 L500 200 L500 400 L800 400 L800 600 L1200 600" stroke="#0984e3" stroke-width="2"/>
      <circle cx="500" cy="200" r="5" fill="#0984e3"/>
      <circle cx="500" cy="400" r="5" fill="#0984e3"/>
      <circle cx="800" cy="400" r="5" fill="#0984e3"/>
      <circle cx="800" cy="600" r="5" fill="#0984e3"/>
      <circle cx="1200" cy="600" r="5" fill="#0984e3"/>
      
      <!-- Circuit 2 -->
      <path d="M300 900 L700 900 L700 700 L1000 700 L1000 300 L1400 300" stroke="#00cec9" stroke-width="2"/>
      <circle cx="700" cy="900" r="5" fill="#00cec9"/>
      <circle cx="700" cy="700" r="5" fill="#00cec9"/>
      <circle cx="1000" cy="700" r="5" fill="#00cec9"/>
      <circle cx="1000" cy="300" r="5" fill="#00cec9"/>
      <circle cx="1400" cy="300" r="5" fill="#00cec9"/>
      
      <!-- Circuit 3 -->
      <path d="M1600 800 L1200 800 L1200 500 L1600 500 L1600 200" stroke="#74b9ff" stroke-width="2"/>
      <circle cx="1200" cy="800" r="5" fill="#74b9ff"/>
      <circle cx="1200" cy="500" r="5" fill="#74b9ff"/>
      <circle cx="1600" cy="500" r="5" fill="#74b9ff"/>
      <circle cx="1600" cy="200" r="5" fill="#74b9ff"/>
    </g>
    
    <!-- Glowing dots -->
    <circle cx="400" cy="300" r="3" fill="#0984e3">
      <animate attributeName="opacity" values="0.3;1;0.3" dur="4s" repeatCount="indefinite"/>
    </circle>
    <circle cx="900" cy="500" r="3" fill="#00cec9">
      <animate attributeName="opacity" values="0.3;1;0.3" dur="5s" repeatCount="indefinite"/>
    </circle>
    <circle cx="1300" cy="700" r="3" fill="#74b9ff">
      <animate attributeName="opacity" values="0.3;1;0.3" dur="3s" repeatCount="indefinite"/>
    </circle>
    <circle cx="1700" cy="400" r="3" fill="#0984e3">
      <animate attributeName="opacity" values="0.3;1;0.3" dur="6s" repeatCount="indefinite"/>
    </circle>
    <circle cx="600" cy="800" r="3" fill="#00cec9">
      <animate attributeName="opacity" values="0.3;1;0.3" dur="4.5s" repeatCount="indefinite"/>
    </circle>
  </svg>